<svg width="125" height="30" viewBox="0 0 125 30" fill="none" xmlns="http://www.w3.org/2000/svg">
<circle cx="15" cy="15" r="15" fill="#6366F1"/>
<path d="M13.3333 21.6667L16.6667 8.33334M20 11.6667L23.3333 15L20 18.3333M10 18.3333L6.66666 15L10 11.6667" stroke="white" stroke-width="2" stroke-linecap="round" stroke-linejoin="round"/>
<path d="M35.1211 18.0801H39.1641V19H33.9902V10.4688H35.1211V18.0801ZM42.9082 19.1172C42.0488 19.1172 41.3496 18.8359 40.8105 18.2734C40.2715 17.707 40.002 16.9512 40.002 16.0059V15.8066C40.002 15.1777 40.1211 14.6172 40.3594 14.125C40.6016 13.6289 40.9375 13.2422 41.3672 12.9648C41.8008 12.6836 42.2695 12.543 42.7734 12.543C43.5977 12.543 44.2383 12.8145 44.6953 13.3574C45.1523 13.9004 45.3809 14.6777 45.3809 15.6895V16.1406H41.0859C41.1016 16.7656 41.2832 17.2715 41.6309 17.6582C41.9824 18.041 42.4277 18.2324 42.9668 18.2324C43.3496 18.2324 43.6738 18.1543 43.9395 17.998C44.2051 17.8418 44.4375 17.6348 44.6367 17.377L45.2988 17.8926C44.7676 18.709 43.9707 19.1172 42.9082 19.1172ZM42.7734 13.4336C42.3359 13.4336 41.9688 13.5938 41.6719 13.9141C41.375 14.2305 41.1914 14.6758 41.1211 15.25H44.2969V15.168C44.2656 14.6172 44.1172 14.1914 43.8516 13.8906C43.5859 13.5859 43.2266 13.4336 42.7734 13.4336ZM50.5547 19C50.4922 18.875 50.4414 18.6523 50.4023 18.332C49.8984 18.8555 49.2969 19.1172 48.5977 19.1172C47.9727 19.1172 47.459 18.9414 47.0566 18.5898C46.6582 18.2344 46.459 17.7852 46.459 17.2422C46.459 16.582 46.709 16.0703 47.209 15.707C47.7129 15.3398 48.4199 15.1562 49.3301 15.1562H50.3848V14.6582C50.3848 14.2793 50.2715 13.9785 50.0449 13.7559C49.8184 13.5293 49.4844 13.416 49.043 13.416C48.6562 13.416 48.332 13.5137 48.0703 13.709C47.8086 13.9043 47.6777 14.1406 47.6777 14.418H46.5879C46.5879 14.1016 46.6992 13.7969 46.9219 13.5039C47.1484 13.207 47.4531 12.9727 47.8359 12.8008C48.2227 12.6289 48.6465 12.543 49.1074 12.543C49.8379 12.543 50.4102 12.7266 50.8242 13.0938C51.2383 13.457 51.4531 13.959 51.4688 14.5996V17.5176C51.4688 18.0996 51.543 18.5625 51.6914 18.9062V19H50.5547ZM48.7559 18.1738C49.0957 18.1738 49.418 18.0859 49.7227 17.9102C50.0273 17.7344 50.248 17.5059 50.3848 17.2246V15.9238H49.5352C48.207 15.9238 47.543 16.3125 47.543 17.0898C47.543 17.4297 47.6562 17.6953 47.8828 17.8867C48.1094 18.0781 48.4004 18.1738 48.7559 18.1738ZM56.2324 13.6328C56.0684 13.6055 55.8906 13.5918 55.6992 13.5918C54.9883 13.5918 54.5059 13.8945 54.252 14.5V19H53.168V12.6602H54.2227L54.2402 13.3926C54.5957 12.8262 55.0996 12.543 55.752 12.543C55.9629 12.543 56.123 12.5703 56.2324 12.625V13.6328ZM58.2598 12.6602L58.2949 13.457C58.7793 12.8477 59.4121 12.543 60.1934 12.543C61.5332 12.543 62.209 13.2988 62.2207 14.8105V19H61.1367V14.8047C61.1328 14.3477 61.0273 14.0098 60.8203 13.791C60.6172 13.5723 60.2988 13.4629 59.8652 13.4629C59.5137 13.4629 59.2051 13.5566 58.9395 13.7441C58.6738 13.9316 58.4668 14.1777 58.3184 14.4824V19H57.2344V12.6602H58.2598ZM72.4453 17.5059L73.6641 12.6602H74.748L72.9023 19H72.0234L70.4824 14.1953L68.9824 19H68.1035L66.2637 12.6602H67.3418L68.5898 17.4062L70.0664 12.6602H70.9395L72.4453 17.5059ZM77.0332 19H75.9492V12.6602H77.0332V19ZM75.8613 10.9785C75.8613 10.8027 75.9141 10.6543 76.0195 10.5332C76.1289 10.4121 76.2891 10.3516 76.5 10.3516C76.7109 10.3516 76.8711 10.4121 76.9805 10.5332C77.0898 10.6543 77.1445 10.8027 77.1445 10.9785C77.1445 11.1543 77.0898 11.3008 76.9805 11.418C76.8711 11.5352 76.7109 11.5938 76.5 11.5938C76.2891 11.5938 76.1289 11.5352 76.0195 11.418C75.9141 11.3008 75.8613 11.1543 75.8613 10.9785ZM80.2441 11.125V12.6602H81.4277V13.498H80.2441V17.4297C80.2441 17.6836 80.2969 17.875 80.4023 18.0039C80.5078 18.1289 80.6875 18.1914 80.9414 18.1914C81.0664 18.1914 81.2383 18.168 81.457 18.1211V19C81.1719 19.0781 80.8945 19.1172 80.625 19.1172C80.1406 19.1172 79.7754 18.9707 79.5293 18.6777C79.2832 18.3848 79.1602 17.9688 79.1602 17.4297V13.498H78.0059V12.6602H79.1602V11.125H80.2441ZM83.7832 13.4277C84.2637 12.8379 84.8887 12.543 85.6582 12.543C86.998 12.543 87.6738 13.2988 87.6855 14.8105V19H86.6016V14.8047C86.5977 14.3477 86.4922 14.0098 86.2852 13.791C86.082 13.5723 85.7637 13.4629 85.3301 13.4629C84.9785 13.4629 84.6699 13.5566 84.4043 13.7441C84.1387 13.9316 83.9316 14.1777 83.7832 14.4824V19H82.6992V10H83.7832V13.4277ZM96.1992 19C96.1367 18.875 96.0859 18.6523 96.0469 18.332C95.543 18.8555 94.9414 19.1172 94.2422 19.1172C93.6172 19.1172 93.1035 18.9414 92.7012 18.5898C92.3027 18.2344 92.1035 17.7852 92.1035 17.2422C92.1035 16.582 92.3535 16.0703 92.8535 15.707C93.3574 15.3398 94.0645 15.1562 94.9746 15.1562H96.0293V14.6582C96.0293 14.2793 95.916 13.9785 95.6895 13.7559C95.4629 13.5293 95.1289 13.416 94.6875 13.416C94.3008 13.416 93.9766 13.5137 93.7148 13.709C93.4531 13.9043 93.3223 14.1406 93.3223 14.418H92.2324C92.2324 14.1016 92.3438 13.7969 92.5664 13.5039C92.793 13.207 93.0977 12.9727 93.4805 12.8008C93.8672 12.6289 94.291 12.543 94.752 12.543C95.4824 12.543 96.0547 12.7266 96.4688 13.0938C96.8828 13.457 97.0977 13.959 97.1133 14.5996V17.5176C97.1133 18.0996 97.1875 18.5625 97.3359 18.9062V19H96.1992ZM94.4004 18.1738C94.7402 18.1738 95.0625 18.0859 95.3672 17.9102C95.6719 17.7344 95.8926 17.5059 96.0293 17.2246V15.9238H95.1797C93.8516 15.9238 93.1875 16.3125 93.1875 17.0898C93.1875 17.4297 93.3008 17.6953 93.5273 17.8867C93.7539 18.0781 94.0449 18.1738 94.4004 18.1738ZM99.8379 12.6602L99.873 13.457C100.357 12.8477 100.99 12.543 101.771 12.543C103.111 12.543 103.787 13.2988 103.799 14.8105V19H102.715V14.8047C102.711 14.3477 102.605 14.0098 102.398 13.791C102.195 13.5723 101.877 13.4629 101.443 13.4629C101.092 13.4629 100.783 13.5566 100.518 13.7441C100.252 13.9316 100.045 14.1777 99.8965 14.4824V19H98.8125V12.6602H99.8379ZM109.348 19C109.285 18.875 109.234 18.6523 109.195 18.332C108.691 18.8555 108.09 19.1172 107.391 19.1172C106.766 19.1172 106.252 18.9414 105.85 18.5898C105.451 18.2344 105.252 17.7852 105.252 17.2422C105.252 16.582 105.502 16.0703 106.002 15.707C106.506 15.3398 107.213 15.1562 108.123 15.1562H109.178V14.6582C109.178 14.2793 109.064 13.9785 108.838 13.7559C108.611 13.5293 108.277 13.416 107.836 13.416C107.449 13.416 107.125 13.5137 106.863 13.709C106.602 13.9043 106.471 14.1406 106.471 14.418H105.381C105.381 14.1016 105.492 13.7969 105.715 13.5039C105.941 13.207 106.246 12.9727 106.629 12.8008C107.016 12.6289 107.439 12.543 107.9 12.543C108.631 12.543 109.203 12.7266 109.617 13.0938C110.031 13.457 110.246 13.959 110.262 14.5996V17.5176C110.262 18.0996 110.336 18.5625 110.484 18.9062V19H109.348ZM107.549 18.1738C107.889 18.1738 108.211 18.0859 108.516 17.9102C108.82 17.7344 109.041 17.5059 109.178 17.2246V15.9238H108.328C107 15.9238 106.336 16.3125 106.336 17.0898C106.336 17.4297 106.449 17.6953 106.676 17.8867C106.902 18.0781 107.193 18.1738 107.549 18.1738ZM115.025 13.6328C114.861 13.6055 114.684 13.5918 114.492 13.5918C113.781 13.5918 113.299 13.8945 113.045 14.5V19H111.961V12.6602H113.016L113.033 13.3926C113.389 12.8262 113.893 12.543 114.545 12.543C114.756 12.543 114.916 12.5703 115.025 12.625V13.6328ZM119.941 18.373C119.52 18.8691 118.9 19.1172 118.084 19.1172C117.408 19.1172 116.893 18.9219 116.537 18.5312C116.186 18.1367 116.008 17.5547 116.004 16.7852V12.6602H117.088V16.7559C117.088 17.7168 117.479 18.1973 118.26 18.1973C119.088 18.1973 119.639 17.8887 119.912 17.2715V12.6602H120.996V19H119.965L119.941 18.373ZM123.826 19H122.742V10H123.826V19Z" fill="black"/>
</svg>
